<svg xmlns="http://www.w3.org/2000/svg" xmlns:xlink="http://www.w3.org/1999/xlink" width="139.434" height="42.974" viewBox="0 0 139.434 42.974">
  <defs>
    <clipPath id="clip-path">
      <rect id="Rectangle_150331" data-name="Rectangle 150331" width="139.434" height="42.974" fill="#1a2e1a"/>
    </clipPath>
  </defs>
  <g id="Entrust-logo" transform="translate(-23 -3)">
    <g id="Group_164921" data-name="Group 164921" transform="translate(23 3)" clip-path="url(#clip-path)">
      <path id="Path_5602" data-name="Path 5602" d="M194.21,44.012h4.4l.275,2.336a7.659,7.659,0,0,1,2.771-1.969,8.907,8.907,0,0,1,3.5-.687,9.162,9.162,0,0,1,4.649,1.122,7.57,7.57,0,0,1,3.023,3.3,12.2,12.2,0,0,1,1.077,5.428V66.915h-4.855V54.227a7.339,7.339,0,0,0-1.214-4.6,4.416,4.416,0,0,0-3.687-1.534,4.688,4.688,0,0,0-3.8,1.58,7.061,7.061,0,0,0-1.328,4.649v12.6h-4.81Z" transform="translate(-167.131 -37.6)" fill="#1a2e1a"/>
      <path id="Path_5603" data-name="Path 5603" d="M355.866,6.413V0h4.855V6.413h5.543v4.214h-5.543V21.3a4.1,4.1,0,0,0,.825,2.931,3.165,3.165,0,0,0,2.084.916,12.807,12.807,0,0,0,2.634-.091v4.076a12.731,12.731,0,0,1-3.779.252,7.87,7.87,0,0,1-3.344-1.031,6.229,6.229,0,0,1-2.382-2.588,9.677,9.677,0,0,1-.893-4.466V10.627h-3.252V6.413Z" transform="translate(-303.448)" fill="#1a2e1a"/>
      <path id="Path_5604" data-name="Path 5604" d="M473.44,44.7h4.4l.321,2.886a9.421,9.421,0,0,1,2.2-1.924,7.68,7.68,0,0,1,2.68-1.054,6.919,6.919,0,0,1,2.954.091v4.443a5.76,5.76,0,0,0-5.153.87,6.219,6.219,0,0,0-1.855,2.29,7.815,7.815,0,0,0-.733,3.527V67.6h-4.81Z" transform="translate(-407.427 -38.286)" fill="#1a2e1a"/>
      <path id="Path_5605" data-name="Path 5605" d="M604.069,68.893h-4.4l-.321-2.382a7.43,7.43,0,0,1-2.771,2.015,8.793,8.793,0,0,1-3.458.687,9.274,9.274,0,0,1-4.672-1.122,7.38,7.38,0,0,1-3.023-3.3,12.288,12.288,0,0,1-1.054-5.382V45.99h4.81V58.724A7.346,7.346,0,0,0,590.4,63.3a4.383,4.383,0,0,0,3.687,1.558,4.772,4.772,0,0,0,3.8-1.58,6.9,6.9,0,0,0,1.374-4.649V45.99h4.81Z" transform="translate(-502.891 -39.577)" fill="#1a2e1a"/>
      <path id="Path_5606" data-name="Path 5606" d="M758.786,59.587a3.859,3.859,0,0,0,1.122,2.084,4.453,4.453,0,0,0,1.832.985,7.727,7.727,0,0,0,1.992.275,5.069,5.069,0,0,0,2.954-.756,2.253,2.253,0,0,0,1.076-1.9,1.831,1.831,0,0,0-.687-1.512,5.134,5.134,0,0,0-1.809-.87q-1.123-.32-2.313-.641-1.237-.32-2.634-.733a11.091,11.091,0,0,1-2.611-1.145,6.332,6.332,0,0,1-1.992-1.878,4.931,4.931,0,0,1-.778-2.84,5.912,5.912,0,0,1,1.168-3.687,7.748,7.748,0,0,1,3.207-2.4,11.5,11.5,0,0,1,4.558-.87,10.494,10.494,0,0,1,5.222,1.26,7.307,7.307,0,0,1,3.252,3.733l-4.26,1.42a2.934,2.934,0,0,0-.985-1.214,4.25,4.25,0,0,0-1.557-.687A7.83,7.83,0,0,0,763.779,48a5.211,5.211,0,0,0-2.634.619,1.971,1.971,0,0,0-1.076,1.809,1.682,1.682,0,0,0,.344,1.076,2.443,2.443,0,0,0,.985.71,9.434,9.434,0,0,0,1.488.481q.847.207,1.809.481,1.465.412,2.886.893a12.829,12.829,0,0,1,2.611,1.214,5.8,5.8,0,0,1,1.924,1.924,5.9,5.9,0,0,1,.779,2.977,6.192,6.192,0,0,1-1.122,3.6,7.372,7.372,0,0,1-3.229,2.542,12.464,12.464,0,0,1-4.993.916A10.828,10.828,0,0,1,757.8,65.77a7.314,7.314,0,0,1-3.229-4.672Z" transform="translate(-649.359 -37.6)" fill="#1a2e1a"/>
      <path id="Path_5607" data-name="Path 5607" d="M905.356,6.413V0h4.856V6.413h5.542v4.214h-5.542V21.3a4.1,4.1,0,0,0,.825,2.931,3.165,3.165,0,0,0,2.084.916,12.807,12.807,0,0,0,2.634-.091v4.076a12.732,12.732,0,0,1-3.779.252,7.872,7.872,0,0,1-3.344-1.031,6.23,6.23,0,0,1-2.382-2.588,9.677,9.677,0,0,1-.893-4.466V10.627H902.1V6.413Z" transform="translate(-776.32)" fill="#1a2e1a"/>
      <path id="Path_5608" data-name="Path 5608" d="M23.809,52.567l.02-.14c.007-.044.012-.088.019-.132l0-.016s0-.008,0-.012c.036-.255.063-.512.083-.772,0-.046.007-.092.01-.138.017-.261.029-.524.029-.79h0c0-.266-.012-.528-.029-.79,0-.046-.007-.092-.01-.138-.02-.259-.047-.517-.083-.772,0,0,0-.008,0-.012l0-.016c-.007-.044-.012-.089-.019-.133l-.02-.14H23.8a11.984,11.984,0,0,0-23.755.951c0,.032,0,.065-.007.1-.025.315-.041.631-.041.952H0c0,.321.016.638.041.952,0,.032,0,.065.007.1.028.321.072.638.124.951A11.969,11.969,0,0,0,20.23,59.253L21.4,60.421a.3.3,0,0,0,.516-.214V55.08a.3.3,0,0,0-.3-.3H16.484a.3.3,0,0,0-.213.515l1.079,1.079a7.632,7.632,0,0,1-5.362,2.133c-3.808,0-6.934-2.621-7.226-5.938H23.809Zm-19.048-4c.292-3.318,3.419-5.938,7.226-5.938s6.934,2.621,7.226,5.938Z" transform="translate(0 -33.201)" fill="#bcce11"/>
      <path id="Path_5609" data-name="Path 5609" d="M0,271.331v-5.738H1.2v.538h.055a2.72,2.72,0,0,1,.178-.206,1.375,1.375,0,0,1,.4-.281,1.483,1.483,0,0,1,.665-.131,1.683,1.683,0,0,1,.811.186,1.715,1.715,0,0,1,.574.5,2.262,2.262,0,0,1,.344.7,2.787,2.787,0,0,1,0,1.583,2.257,2.257,0,0,1-.344.7,1.71,1.71,0,0,1-.574.5,1.683,1.683,0,0,1-.811.186,1.486,1.486,0,0,1-.665-.131,1.377,1.377,0,0,1-.4-.281,2.683,2.683,0,0,1-.178-.206H1.2v2.082Zm1.179-3.641a1.573,1.573,0,0,0,.107.57,1.075,1.075,0,0,0,.325.455.827.827,0,0,0,.542.178.828.828,0,0,0,.542-.178,1.075,1.075,0,0,0,.325-.455,1.574,1.574,0,0,0,0-1.14,1.076,1.076,0,0,0-.325-.455.828.828,0,0,0-.542-.178.827.827,0,0,0-.542.178,1.076,1.076,0,0,0-.325.455,1.574,1.574,0,0,0-.107.57" transform="translate(0 -228.492)" fill="#1a2e1a"/>
      <rect id="Rectangle_150328" data-name="Rectangle 150328" width="1.203" height="6.015" transform="translate(5.24 35.28)" fill="#1a2e1a"/>
      <path id="Path_5610" data-name="Path 5610" d="M54.464,265.514a1.483,1.483,0,0,1,.665.131,1.373,1.373,0,0,1,.4.281,1.536,1.536,0,0,1,.17.206h.063v-.538h1.2v4.195h-1.2v-.538H55.7a1.524,1.524,0,0,1-.17.206,1.376,1.376,0,0,1-.4.281,1.486,1.486,0,0,1-.665.131,1.682,1.682,0,0,1-.811-.186,1.709,1.709,0,0,1-.574-.5,2.251,2.251,0,0,1-.344-.7,2.786,2.786,0,0,1,0-1.583,2.254,2.254,0,0,1,.344-.7,1.714,1.714,0,0,1,.574-.5,1.682,1.682,0,0,1,.811-.186m.348.974a.828.828,0,0,0-.542.178,1.076,1.076,0,0,0-.325.455,1.574,1.574,0,0,0,0,1.14,1.074,1.074,0,0,0,.325.455.914.914,0,0,0,1.084,0,1.075,1.075,0,0,0,.325-.455,1.574,1.574,0,0,0,0-1.14,1.077,1.077,0,0,0-.325-.455.829.829,0,0,0-.542-.178" transform="translate(-45.283 -228.492)" fill="#1a2e1a"/>
      <path id="Path_5611" data-name="Path 5611" d="M90.537,269.788v-4.195h1.2v.6h.04a1.764,1.764,0,0,1,.21-.285,1.224,1.224,0,0,1,.372-.277,1.334,1.334,0,0,1,1.848.685,1.956,1.956,0,0,1,.143.74v2.731h-1.2v-2.525a.9.9,0,0,0-.162-.53.591.591,0,0,0-.518-.229.665.665,0,0,0-.427.127.719.719,0,0,0-.23.325,1.228,1.228,0,0,0-.071.419v2.414Z" transform="translate(-77.913 -228.492)" fill="#1a2e1a"/>
      <path id="Path_5612" data-name="Path 5612" d="M124.482,269.788v-4.195h1.2v.6h.04a1.764,1.764,0,0,1,.21-.285,1.223,1.223,0,0,1,.372-.277,1.334,1.334,0,0,1,1.848.685,1.956,1.956,0,0,1,.143.74v2.731h-1.2v-2.525a.9.9,0,0,0-.162-.53.591.591,0,0,0-.518-.229.665.665,0,0,0-.427.127.719.719,0,0,0-.229.325,1.227,1.227,0,0,0-.071.419v2.414Z" transform="translate(-107.125 -228.492)" fill="#1a2e1a"/>
      <path id="Path_5613" data-name="Path 5613" d="M159.138,253.5a.689.689,0,0,1-.515-.2.66.66,0,0,1-.2-.479.68.68,0,0,1,.2-.495.689.689,0,0,1,.515-.2.7.7,0,0,1,.507.2.666.666,0,0,1,.206.495.648.648,0,0,1-.206.479.7.7,0,0,1-.507.2m-.6.57h1.2v4.195h-1.2Z" transform="translate(-136.336 -216.964)" fill="#1a2e1a"/>
      <path id="Path_5614" data-name="Path 5614" d="M175.228,269.788v-4.195h1.2v.6h.04a1.764,1.764,0,0,1,.21-.285,1.224,1.224,0,0,1,.372-.277,1.334,1.334,0,0,1,1.848.685,1.956,1.956,0,0,1,.142.74v2.731h-1.2v-2.525a.9.9,0,0,0-.162-.53.591.591,0,0,0-.518-.229.666.666,0,0,0-.427.127.719.719,0,0,0-.229.325,1.227,1.227,0,0,0-.071.419v2.414Z" transform="translate(-150.795 -228.492)" fill="#1a2e1a"/>
      <path id="Path_5615" data-name="Path 5615" d="M210.643,271.466a2.746,2.746,0,0,1-.962-.142,1.7,1.7,0,0,1-.6-.36,1.575,1.575,0,0,1-.324-.431,2.041,2.041,0,0,1-.158-.507h1.172a.778.778,0,0,0,.142.249.731.731,0,0,0,.257.174,1.145,1.145,0,0,0,.455.075.9.9,0,0,0,.724-.277,1.092,1.092,0,0,0,.233-.728v-.443h-.055a1.479,1.479,0,0,1-.237.277,1.321,1.321,0,0,1-.4.253,1.533,1.533,0,0,1-.594.1,1.766,1.766,0,0,1-.815-.178,1.711,1.711,0,0,1-.582-.479,2.089,2.089,0,0,1-.348-.673,2.615,2.615,0,0,1,0-1.532,2.088,2.088,0,0,1,.348-.677,1.715,1.715,0,0,1,.582-.479,1.767,1.767,0,0,1,.815-.178,1.443,1.443,0,0,1,1,.36,1.071,1.071,0,0,1,.233.281h.055v-.562h1.2v3.926a2.069,2.069,0,0,1-.23.966,1.727,1.727,0,0,1-.7.712,2.435,2.435,0,0,1-1.211.269m-.016-2.707a.881.881,0,0,0,.55-.166,1.034,1.034,0,0,0,.329-.431,1.43,1.43,0,0,0,0-1.1,1.037,1.037,0,0,0-.329-.427.88.88,0,0,0-.55-.166.867.867,0,0,0-.542.166,1.033,1.033,0,0,0-.328.427,1.43,1.43,0,0,0,0,1.1,1.03,1.03,0,0,0,.328.431.867.867,0,0,0,.542.166" transform="translate(-179.372 -228.492)" fill="#1a2e1a"/>
      <path id="Path_5616" data-name="Path 5616" d="M248.282,288.381a.644.644,0,0,1-.491-.2.694.694,0,0,1,0-.954.693.693,0,0,1,.97,0,.664.664,0,0,1,.194.483.654.654,0,0,1-.194.475.644.644,0,0,1-.479.2" transform="translate(-213.077 -247.007)" fill="#bcce11"/>
      <path id="Path_5617" data-name="Path 5617" d="M280.057,269.867a2.271,2.271,0,0,1-.958-.186,1.871,1.871,0,0,1-.665-.5,2.16,2.16,0,0,1-.392-.7,2.489,2.489,0,0,1-.131-.8,2.54,2.54,0,0,1,.123-.78,2.129,2.129,0,0,1,.38-.7,1.823,1.823,0,0,1,.657-.5,2.226,2.226,0,0,1,.946-.186,2.044,2.044,0,0,1,1.025.253,1.753,1.753,0,0,1,.7.748,2.607,2.607,0,0,1,.253,1.2v.293h-2.873a1.073,1.073,0,0,0,.265.657.84.84,0,0,0,.669.277.913.913,0,0,0,.4-.075.757.757,0,0,0,.242-.174.88.88,0,0,0,.15-.257h1.108a2.267,2.267,0,0,1-.182.507,1.816,1.816,0,0,1-.321.427,1.655,1.655,0,0,1-.55.356,2.2,2.2,0,0,1-.847.142m-.934-2.588h1.717a.9.9,0,0,0-.261-.649.9.9,0,0,0-1.179.012.924.924,0,0,0-.277.637" transform="translate(-239.162 -228.492)" fill="#1a2e1a"/>
      <path id="Path_5618" data-name="Path 5618" d="M313.049,269.788v-4.195h1.2v.6h.04a1.755,1.755,0,0,1,.21-.285,1.221,1.221,0,0,1,.372-.277,1.334,1.334,0,0,1,1.848.685,1.957,1.957,0,0,1,.142.74v2.731h-1.2v-2.525a.9.9,0,0,0-.162-.53.591.591,0,0,0-.518-.229.666.666,0,0,0-.427.127.719.719,0,0,0-.23.325,1.228,1.228,0,0,0-.071.419v2.414Z" transform="translate(-269.399 -228.492)" fill="#1a2e1a"/>
      <path id="Path_5619" data-name="Path 5619" d="M345.408,270.277l-1.535-4.195h1.2l.981,2.842.942-2.842h1.211l-1.543,4.195Z" transform="translate(-295.925 -228.981)" fill="#1a2e1a"/>
      <path id="Path_5620" data-name="Path 5620" d="M380.288,253.5a.689.689,0,0,1-.515-.2.66.66,0,0,1-.2-.479.68.68,0,0,1,.2-.495.689.689,0,0,1,.515-.2.7.7,0,0,1,.507.2.666.666,0,0,1,.206.495.648.648,0,0,1-.206.479.7.7,0,0,1-.507.2m-.6.57h1.2v4.195h-1.2Z" transform="translate(-326.65 -216.964)" fill="#1a2e1a"/>
      <path id="Path_5621" data-name="Path 5621" d="M396.378,269.788v-4.195h1.2v.609h.039a1.414,1.414,0,0,1,.2-.324.946.946,0,0,1,.348-.261,1.36,1.36,0,0,1,.57-.1,2.028,2.028,0,0,1,.38.04v1.187a2.056,2.056,0,0,0-.412-.048,1.079,1.079,0,0,0-.839.3,1.456,1.456,0,0,0-.277.993v1.8Z" transform="translate(-341.11 -228.492)" fill="#1a2e1a"/>
      <path id="Path_5622" data-name="Path 5622" d="M421.284,269.867a2.223,2.223,0,0,1-1.2-.3,2.032,2.032,0,0,1-.748-.8,2.366,2.366,0,0,1,0-2.145,2.035,2.035,0,0,1,.748-.8,2.5,2.5,0,0,1,2.39,0,2.035,2.035,0,0,1,.748.8,2.365,2.365,0,0,1,0,2.145,2.033,2.033,0,0,1-.748.8,2.223,2.223,0,0,1-1.2.3m0-.981a.854.854,0,0,0,.534-.166,1.085,1.085,0,0,0,.336-.439,1.535,1.535,0,0,0,0-1.183,1.09,1.09,0,0,0-.336-.435.855.855,0,0,0-.534-.166.872.872,0,0,0-.538.166,1.045,1.045,0,0,0-.336.435,1.582,1.582,0,0,0,0,1.183,1.041,1.041,0,0,0,.336.439.871.871,0,0,0,.538.166" transform="translate(-360.65 -228.492)" fill="#1a2e1a"/>
      <path id="Path_5623" data-name="Path 5623" d="M456.49,269.788v-4.195h1.2v.6h.04a1.755,1.755,0,0,1,.21-.285,1.221,1.221,0,0,1,.372-.277,1.334,1.334,0,0,1,1.848.685,1.956,1.956,0,0,1,.143.74v2.731h-1.2v-2.525a.9.9,0,0,0-.162-.53.591.591,0,0,0-.518-.229.665.665,0,0,0-.427.127.719.719,0,0,0-.229.325,1.228,1.228,0,0,0-.071.419v2.414Z" transform="translate(-392.84 -228.492)" fill="#1a2e1a"/>
      <path id="Path_5624" data-name="Path 5624" d="M490.435,269.788v-4.195h1.2v.57h.04a1.593,1.593,0,0,1,.4-.439,1.17,1.17,0,0,1,.736-.21,1.223,1.223,0,0,1,.764.222,1.315,1.315,0,0,1,.423.546h.016a1.824,1.824,0,0,1,.273-.36,1.332,1.332,0,0,1,.427-.293,1.474,1.474,0,0,1,.605-.115,1.235,1.235,0,0,1,.72.2,1.2,1.2,0,0,1,.423.518,1.711,1.711,0,0,1,.138.685v2.873h-1.2v-2.572a.816.816,0,0,0-.154-.51.546.546,0,0,0-.463-.2.591.591,0,0,0-.384.119.682.682,0,0,0-.214.3,1.119,1.119,0,0,0-.067.384v2.477h-1.2v-2.572a.816.816,0,0,0-.154-.51.546.546,0,0,0-.463-.2.591.591,0,0,0-.384.119.683.683,0,0,0-.214.3,1.12,1.12,0,0,0-.067.384v2.477Z" transform="translate(-422.052 -228.492)" fill="#1a2e1a"/>
      <path id="Path_5625" data-name="Path 5625" d="M542.7,269.867a2.271,2.271,0,0,1-.958-.186,1.87,1.87,0,0,1-.665-.5,2.159,2.159,0,0,1-.392-.7,2.489,2.489,0,0,1-.131-.8,2.539,2.539,0,0,1,.123-.78,2.13,2.13,0,0,1,.38-.7,1.823,1.823,0,0,1,.657-.5,2.227,2.227,0,0,1,.946-.186,2.044,2.044,0,0,1,1.025.253,1.753,1.753,0,0,1,.7.748,2.607,2.607,0,0,1,.253,1.2v.293h-2.873a1.073,1.073,0,0,0,.265.657.84.84,0,0,0,.669.277.914.914,0,0,0,.4-.075.758.758,0,0,0,.241-.174.881.881,0,0,0,.15-.257H544.6a2.266,2.266,0,0,1-.182.507,1.816,1.816,0,0,1-.321.427,1.655,1.655,0,0,1-.55.356,2.2,2.2,0,0,1-.847.142m-.934-2.588h1.717a.9.9,0,0,0-.261-.649.9.9,0,0,0-1.179.012.924.924,0,0,0-.277.637" transform="translate(-465.186 -228.492)" fill="#1a2e1a"/>
      <path id="Path_5626" data-name="Path 5626" d="M575.694,269.788v-4.195h1.2v.6h.04a1.765,1.765,0,0,1,.21-.285,1.224,1.224,0,0,1,.372-.277,1.334,1.334,0,0,1,1.848.685,1.955,1.955,0,0,1,.142.74v2.731h-1.2v-2.525a.9.9,0,0,0-.162-.53.591.591,0,0,0-.518-.229.666.666,0,0,0-.427.127.719.719,0,0,0-.229.325,1.228,1.228,0,0,0-.071.419v2.414Z" transform="translate(-495.423 -228.492)" fill="#1a2e1a"/>
      <path id="Path_5627" data-name="Path 5627" d="M609.724,263.957a1.766,1.766,0,0,1-.784-.146,1.114,1.114,0,0,1-.443-.372,1.281,1.281,0,0,1-.2-.479,2.53,2.53,0,0,1-.048-.467v-1.852h-.712v-.958h.712v-1.037h1.2v1.037h.895v.958h-.895v1.82a.555.555,0,0,0,.139.4.627.627,0,0,0,.463.143,2.046,2.046,0,0,0,.38-.048v.926a4.486,4.486,0,0,1-.712.071" transform="translate(-522.828 -222.582)" fill="#1a2e1a"/>
      <path id="Path_5628" data-name="Path 5628" d="M635.04,265.514a1.483,1.483,0,0,1,.665.131,1.373,1.373,0,0,1,.4.281,1.536,1.536,0,0,1,.17.206h.063v-.538h1.2v4.195h-1.2v-.538h-.063a1.524,1.524,0,0,1-.17.206,1.376,1.376,0,0,1-.4.281,1.486,1.486,0,0,1-.665.131,1.683,1.683,0,0,1-.811-.186,1.709,1.709,0,0,1-.574-.5,2.25,2.25,0,0,1-.344-.7,2.787,2.787,0,0,1,0-1.583,2.253,2.253,0,0,1,.344-.7,1.714,1.714,0,0,1,.574-.5,1.683,1.683,0,0,1,.811-.186m.348.974a.828.828,0,0,0-.542.178,1.076,1.076,0,0,0-.325.455,1.575,1.575,0,0,0,0,1.14,1.074,1.074,0,0,0,.325.455.914.914,0,0,0,1.084,0,1.076,1.076,0,0,0,.325-.455,1.574,1.574,0,0,0,0-1.14,1.078,1.078,0,0,0-.325-.455.829.829,0,0,0-.542-.178" transform="translate(-544.907 -228.492)" fill="#1a2e1a"/>
      <rect id="Rectangle_150329" data-name="Rectangle 150329" width="1.203" height="6.015" transform="translate(93.655 35.28)" fill="#1a2e1a"/>
      <path id="Path_5629" data-name="Path 5629" d="M689.5,288.381a.644.644,0,0,1-.491-.2.694.694,0,0,1,0-.954.693.693,0,0,1,.97,0,.664.664,0,0,1,.194.483.654.654,0,0,1-.194.475.644.644,0,0,1-.479.2" transform="translate(-592.778 -247.007)" fill="#bcce11"/>
      <path id="Path_5630" data-name="Path 5630" d="M720.071,263.957a1.765,1.765,0,0,1-.784-.146,1.114,1.114,0,0,1-.443-.372,1.283,1.283,0,0,1-.2-.479,2.54,2.54,0,0,1-.047-.467v-1.852h-.712v-.958h.712v-1.037h1.2v1.037h.895v.958H719.8v1.82a.555.555,0,0,0,.139.4.627.627,0,0,0,.463.143,2.043,2.043,0,0,0,.38-.048v.926a4.484,4.484,0,0,1-.712.071" transform="translate(-617.788 -222.582)" fill="#1a2e1a"/>
      <path id="Path_5631" data-name="Path 5631" d="M745.688,269.867a2.271,2.271,0,0,1-.958-.186,1.871,1.871,0,0,1-.665-.5,2.16,2.16,0,0,1-.392-.7,2.49,2.49,0,0,1-.13-.8,2.543,2.543,0,0,1,.123-.78,2.133,2.133,0,0,1,.38-.7,1.824,1.824,0,0,1,.657-.5,2.226,2.226,0,0,1,.946-.186,2.044,2.044,0,0,1,1.025.253,1.754,1.754,0,0,1,.7.748,2.609,2.609,0,0,1,.253,1.2v.293h-2.873a1.073,1.073,0,0,0,.265.657.84.84,0,0,0,.669.277.913.913,0,0,0,.4-.075.756.756,0,0,0,.242-.174.878.878,0,0,0,.15-.257h1.108a2.269,2.269,0,0,1-.182.507,1.816,1.816,0,0,1-.321.427,1.655,1.655,0,0,1-.55.356,2.2,2.2,0,0,1-.847.142m-.934-2.588h1.717a.9.9,0,0,0-.261-.649.9.9,0,0,0-1.179.012.923.923,0,0,0-.277.637" transform="translate(-639.868 -228.492)" fill="#1a2e1a"/>
      <path id="Path_5632" data-name="Path 5632" d="M780.524,269.867a2.327,2.327,0,0,1-.966-.186,1.952,1.952,0,0,1-.681-.495,2.081,2.081,0,0,1-.4-.7,2.426,2.426,0,0,1-.135-.8,2.393,2.393,0,0,1,.135-.792,2.138,2.138,0,0,1,.4-.7,1.933,1.933,0,0,1,.681-.5,2.327,2.327,0,0,1,.966-.186,2.284,2.284,0,0,1,.926.162,1.7,1.7,0,0,1,.582.4,1.77,1.77,0,0,1,.321.483,2.551,2.551,0,0,1,.158.566h-1.124a1.228,1.228,0,0,0-.138-.328.73.73,0,0,0-.249-.229.862.862,0,0,0-.443-.1.913.913,0,0,0-.566.17,1.024,1.024,0,0,0-.336.447,1.687,1.687,0,0,0,0,1.2,1.022,1.022,0,0,0,.336.447.912.912,0,0,0,.566.17.861.861,0,0,0,.443-.1.728.728,0,0,0,.249-.23,1.229,1.229,0,0,0,.138-.329h1.124a2.545,2.545,0,0,1-.158.566,1.766,1.766,0,0,1-.321.483,1.7,1.7,0,0,1-.582.4,2.283,2.283,0,0,1-.926.162" transform="translate(-669.812 -228.492)" fill="#1a2e1a"/>
      <path id="Path_5633" data-name="Path 5633" d="M815.009,259.042v-6.015h1.2v2.422h.04a1.76,1.76,0,0,1,.21-.285,1.223,1.223,0,0,1,.372-.277,1.333,1.333,0,0,1,1.848.685,1.955,1.955,0,0,1,.143.74v2.731h-1.2v-2.525a.9.9,0,0,0-.162-.53.591.591,0,0,0-.518-.23.665.665,0,0,0-.427.127.717.717,0,0,0-.229.325,1.227,1.227,0,0,0-.071.419v2.414Z" transform="translate(-701.369 -217.746)" fill="#1a2e1a"/>
      <path id="Path_5634" data-name="Path 5634" d="M848.953,269.788v-4.195h1.2v.6h.04a1.766,1.766,0,0,1,.21-.285,1.223,1.223,0,0,1,.372-.277,1.334,1.334,0,0,1,1.848.685,1.957,1.957,0,0,1,.143.74v2.731h-1.2v-2.525a.9.9,0,0,0-.162-.53.591.591,0,0,0-.518-.229.665.665,0,0,0-.427.127.719.719,0,0,0-.23.325,1.231,1.231,0,0,0-.071.419v2.414Z" transform="translate(-730.58 -228.492)" fill="#1a2e1a"/>
      <path id="Path_5635" data-name="Path 5635" d="M883.609,253.5a.688.688,0,0,1-.514-.2.66.66,0,0,1-.2-.479.679.679,0,0,1,.2-.495.688.688,0,0,1,.514-.2.7.7,0,0,1,.507.2.666.666,0,0,1,.206.495.648.648,0,0,1-.206.479.7.7,0,0,1-.507.2m-.6.57h1.2v4.195h-1.2Z" transform="translate(-759.791 -216.964)" fill="#1a2e1a"/>
      <path id="Path_5636" data-name="Path 5636" d="M901.486,269.867a2.327,2.327,0,0,1-.966-.186,1.952,1.952,0,0,1-.681-.495,2.082,2.082,0,0,1-.4-.7,2.426,2.426,0,0,1-.135-.8,2.393,2.393,0,0,1,.135-.792,2.139,2.139,0,0,1,.4-.7,1.934,1.934,0,0,1,.681-.5,2.327,2.327,0,0,1,.966-.186,2.284,2.284,0,0,1,.926.162,1.705,1.705,0,0,1,.582.4,1.768,1.768,0,0,1,.321.483,2.547,2.547,0,0,1,.158.566h-1.124a1.228,1.228,0,0,0-.138-.328.728.728,0,0,0-.249-.229.861.861,0,0,0-.443-.1.913.913,0,0,0-.566.17,1.024,1.024,0,0,0-.336.447,1.688,1.688,0,0,0,0,1.2,1.023,1.023,0,0,0,.336.447.912.912,0,0,0,.566.17.86.86,0,0,0,.443-.1.726.726,0,0,0,.249-.23,1.229,1.229,0,0,0,.138-.329h1.124a2.541,2.541,0,0,1-.158.566,1.764,1.764,0,0,1-.321.483,1.7,1.7,0,0,1-.582.4,2.284,2.284,0,0,1-.926.162" transform="translate(-773.908 -228.492)" fill="#1a2e1a"/>
      <path id="Path_5637" data-name="Path 5637" d="M936.51,265.514a1.484,1.484,0,0,1,.665.131,1.373,1.373,0,0,1,.4.281,1.543,1.543,0,0,1,.17.206h.063v-.538h1.2v4.195h-1.2v-.538h-.063a1.531,1.531,0,0,1-.17.206,1.376,1.376,0,0,1-.4.281,1.487,1.487,0,0,1-.665.131,1.683,1.683,0,0,1-.811-.186,1.709,1.709,0,0,1-.574-.5,2.249,2.249,0,0,1-.344-.7,2.79,2.79,0,0,1,0-1.583,2.252,2.252,0,0,1,.344-.7,1.714,1.714,0,0,1,.574-.5,1.683,1.683,0,0,1,.811-.186m.348.974a.828.828,0,0,0-.542.178,1.075,1.075,0,0,0-.324.455,1.572,1.572,0,0,0,0,1.14,1.073,1.073,0,0,0,.324.455.914.914,0,0,0,1.084,0,1.074,1.074,0,0,0,.325-.455,1.574,1.574,0,0,0,0-1.14,1.076,1.076,0,0,0-.325-.455.829.829,0,0,0-.542-.178" transform="translate(-804.342 -228.492)" fill="#1a2e1a"/>
      <rect id="Rectangle_150330" data-name="Rectangle 150330" width="1.203" height="6.015" transform="translate(135.69 35.28)" fill="#1a2e1a"/>
      <path id="Path_5638" data-name="Path 5638" d="M990.974,288.381a.644.644,0,0,1-.491-.2.694.694,0,0,1,0-.954.693.693,0,0,1,.97,0,.664.664,0,0,1,.194.483.654.654,0,0,1-.194.475.644.644,0,0,1-.479.2" transform="translate(-852.213 -247.007)" fill="#bcce11"/>
    </g>
  </g>
</svg>
